REM DIRINDEX 1\2,1\3,1\4,1\5
REM DIRNAME "folder01","folder02","folder03","folder04","folder05"
TITLE ""
FILE "P1Q_t_1078-1087.mp3" MP3
  TRACK 01 AUDIO
    TITLE "3:cjc173_4191"
    INDEX 01 00:00:00
  TRACK 02 AUDIO
    TITLE "0:"
    INDEX 01 00:01:08
  TRACK 03 AUDIO
    TITLE "4:cjc173_4192"
    INDEX 01 00:01:27
  TRACK 04 AUDIO
    TITLE "0:"
    INDEX 01 00:02:48
  TRACK 05 AUDIO
    TITLE "5:cjc173_4193"
    INDEX 01 00:02:68
  TRACK 06 AUDIO
    TITLE "0:"
    INDEX 01 00:07:22
  TRACK 07 AUDIO
    TITLE "3:cjc173_4194"
    INDEX 01 00:07:65
  TRACK 08 AUDIO
    TITLE "0:"
    INDEX 01 00:08:74
  TRACK 09 AUDIO
    TITLE "4:cjc173_4195"
    INDEX 01 00:09:19
  TRACK 10 AUDIO
    TITLE "0:"
    INDEX 01 00:11:61
  TRACK 11 AUDIO
    TITLE "5:cjc173_4196"
    INDEX 01 00:12:06
  TRACK 12 AUDIO
    TITLE "0:"
    INDEX 01 00:16:45
  TRACK 13 AUDIO
    TITLE "3:cjc173_4197"
    INDEX 01 00:17:19
  TRACK 14 AUDIO
    TITLE "0:"
    INDEX 01 00:18:45
  TRACK 15 AUDIO
    TITLE "4:cjc173_4198"
    INDEX 01 00:18:67
  TRACK 16 AUDIO
    TITLE "0:"
    INDEX 01 00:21:42
  TRACK 17 AUDIO
    TITLE "5:cjc173_4199"
    INDEX 01 00:21:63
  TRACK 18 AUDIO
    TITLE "0:"
    INDEX 01 00:27:42
  TRACK 19 AUDIO
    TITLE "3:cjc173_4200"
    INDEX 01 00:28:13
  TRACK 20 AUDIO
    TITLE "0:"
    INDEX 01 00:29:28
  TRACK 21 AUDIO
    TITLE "4:cjc173_4201"
    INDEX 01 00:29:47
  TRACK 22 AUDIO
    TITLE "0:"
    INDEX 01 00:32:34
  TRACK 23 AUDIO
    TITLE "5:cjc173_4202"
    INDEX 01 00:32:53
  TRACK 24 AUDIO
    TITLE "0:"
    INDEX 01 00:36:63
  TRACK 25 AUDIO
    TITLE "3:cjc173_4203"
    INDEX 01 00:37:33
  TRACK 26 AUDIO
    TITLE "0:"
    INDEX 01 00:38:42
  TRACK 27 AUDIO
    TITLE "4:cjc173_4204"
    INDEX 01 00:38:64
  TRACK 28 AUDIO
    TITLE "0:"
    INDEX 01 00:42:30
  TRACK 29 AUDIO
    TITLE "5:cjc173_4205"
    INDEX 01 00:42:50
  TRACK 30 AUDIO
    TITLE "0:"
    INDEX 01 00:46:71
  TRACK 31 AUDIO
    TITLE "3:cjc173_4206"
    INDEX 01 00:47:51
  TRACK 32 AUDIO
    TITLE "0:"
    INDEX 01 00:48:68
  TRACK 33 AUDIO
    TITLE "4:cjc173_4207"
    INDEX 01 00:49:15
  TRACK 34 AUDIO
    TITLE "0:"
    INDEX 01 00:51:53
  TRACK 35 AUDIO
    TITLE "5:cjc173_4208"
    INDEX 01 00:51:72
  TRACK 36 AUDIO
    TITLE "0:"
    INDEX 01 00:55:62
  TRACK 37 AUDIO
    TITLE "3:cjc173_4209"
    INDEX 01 00:56:32
  TRACK 38 AUDIO
    TITLE "0:"
    INDEX 01 00:57:53
  TRACK 39 AUDIO
    TITLE "4:cjc173_4210"
    INDEX 01 00:57:75
  TRACK 40 AUDIO
    TITLE "0:"
    INDEX 01 01:00:63
  TRACK 41 AUDIO
    TITLE "5:cjc173_4211"
    INDEX 01 01:01:10
  TRACK 42 AUDIO
    TITLE "0:"
    INDEX 01 01:05:67
  TRACK 43 AUDIO
    TITLE "3:cjc173_4212"
    INDEX 01 01:06:37
  TRACK 44 AUDIO
    TITLE "0:"
    INDEX 01 01:07:64
  TRACK 45 AUDIO
    TITLE "4:cjc173_4213"
    INDEX 01 01:08:06
  TRACK 46 AUDIO
    TITLE "0:"
    INDEX 01 01:10:44
  TRACK 47 AUDIO
    TITLE "5:cjc173_4214"
    INDEX 01 01:10:64
  TRACK 48 AUDIO
    TITLE "0:"
    INDEX 01 01:14:20
  TRACK 49 AUDIO
    TITLE "3:cjc173_4215"
    INDEX 01 01:14:66
  TRACK 50 AUDIO
    TITLE "0:"
    INDEX 01 01:16:19
  TRACK 51 AUDIO
    TITLE "4:cjc173_4216"
    INDEX 01 01:16:39
  TRACK 52 AUDIO
    TITLE "0:"
    INDEX 01 01:18:22
  TRACK 53 AUDIO
    TITLE "5:cjc173_4217"
    INDEX 01 01:18:42
  TRACK 54 AUDIO
    TITLE "0:"
    INDEX 01 01:23:10
  TRACK 55 AUDIO
    TITLE "3:cjc173_4218"
    INDEX 01 01:23:55
  TRACK 56 AUDIO
    TITLE "0:"
    INDEX 01 01:24:72
  TRACK 57 AUDIO
    TITLE "4:cjc173_4219"
    INDEX 01 01:25:16
  TRACK 58 AUDIO
    TITLE "0:"
    INDEX 01 01:28:48
  TRACK 59 AUDIO
    TITLE "5:cjc173_4220"
    INDEX 01 01:28:68
  TRACK 60 AUDIO
    TITLE "0:"
    INDEX 01 01:33:41
